<?xml version="1.0" standalone="no"?>
<!DOCTYPE svg PUBLIC "-//W3C//DTD SVG 20010904//EN"
 "http://www.w3.org/TR/2001/REC-SVG-20010904/DTD/svg10.dtd">
<svg version="1.0" xmlns="http://www.w3.org/2000/svg"
 width="2000.000000pt" height="2000.000000pt" viewBox="0 0 2000.000000 2000.000000"
 preserveAspectRatio="xMidYMid meet">
<metadata>
Created by potrace 1.11, written by Peter Selinger 2001-2013
</metadata>
<g transform="translate(0.000000,2000.000000) scale(0.100000,-0.100000)"
fill="#000000" stroke="none">
<path d="M830 18150 c-402 -91 -694 -372 -803 -774 l-22 -81 -2 -7713 -3
-7713 1287 4 c709 1 1299 6 1313 10 14 3 39 9 55 13 62 12 183 57 257 97 132
69 244 167 368 324 27 34 102 188 125 257 60 179 57 61 57 2319 1 1137 2 2067
4 2067 2 0 93 -110 593 -725 161 -198 308 -378 326 -400 19 -22 64 -78 102
-125 37 -47 74 -91 81 -98 7 -8 25 -30 40 -50 15 -21 29 -39 33 -42 3 -3 57
-68 119 -145 63 -77 173 -212 244 -300 72 -88 136 -167 143 -175 7 -8 47 -58
90 -111 43 -52 113 -138 155 -190 42 -52 131 -161 198 -244 67 -82 129 -159
138 -170 10 -11 82 -101 162 -200 80 -99 147 -182 151 -185 5 -5 121 -148 323
-399 60 -75 112 -138 116 -141 3 -3 13 -14 21 -26 8 -12 33 -43 55 -70 23 -27
124 -150 224 -274 99 -124 189 -234 198 -245 9 -11 35 -42 57 -70 22 -27 45
-55 50 -61 6 -6 30 -36 55 -65 154 -183 349 -336 555 -433 83 -39 213 -85 290
-101 11 -3 31 -7 45 -11 132 -30 229 -31 1948 -32 952 0 1734 3 1736 7 4 6
-372 474 -543 677 -14 18 -39 49 -56 70 -35 44 -139 172 -158 194 -7 8 -33 40
-57 70 -25 30 -49 60 -55 67 -5 7 -15 18 -20 25 -45 56 -140 174 -145 178 -4
4 -225 274 -367 450 -7 8 -58 72 -115 141 -57 70 -143 175 -191 235 -49 60
-104 127 -122 149 -18 22 -88 108 -154 190 -67 83 -130 159 -139 170 -10 11
-64 78 -122 150 -58 71 -115 141 -127 155 -24 28 -113 138 -158 195 -16 21
-35 43 -40 49 -6 6 -66 81 -135 166 -69 85 -132 164 -142 175 -9 11 -128 157
-264 325 -345 425 -397 488 -868 1070 -230 283 -430 529 -444 546 -15 17 -38
46 -52 64 -14 18 -30 38 -35 44 -6 6 -39 47 -75 91 -36 44 -69 85 -75 92 -5 6
-21 26 -35 44 -14 18 -30 37 -35 43 -6 6 -48 58 -95 116 -46 58 -112 139 -145
180 -260 318 -365 449 -365 454 0 3 51 67 113 143 61 76 148 183 192 238 44
55 86 106 93 113 7 8 65 80 130 160 64 81 119 149 123 152 3 3 113 138 244
300 315 390 368 454 375 460 3 3 21 25 40 50 19 25 37 47 40 50 3 3 70 86 149
185 80 99 148 182 151 185 3 3 43 52 89 110 46 58 87 107 90 110 4 3 22 25 41
50 19 25 37 47 40 50 3 3 41 50 85 105 44 55 82 102 85 105 3 3 34 40 69 83
34 42 68 77 74 78 75 4 3990 0 3994 -5 4 -4 8 -1445 8 -3204 1 -1758 4 -3217
8 -3242 4 -25 9 -70 12 -100 16 -159 56 -385 84 -478 5 -18 10 -35 10 -37 4
-38 94 -321 120 -380 5 -11 22 -49 37 -85 33 -78 156 -319 182 -358 10 -15 36
-54 57 -87 104 -165 255 -345 419 -500 138 -131 127 -122 235 -203 277 -210
612 -380 941 -479 131 -39 332 -87 410 -98 14 -2 39 -6 56 -9 30 -6 42 -7 156
-21 31 -4 74 -10 95 -13 21 -2 729 -6 1573 -8 1679 -3 1595 -6 1780 56 282 94
536 350 635 639 56 166 56 160 56 1208 0 530 -1 967 -3 969 -3 2 -576 4 -1274
4 -1029 1 -1284 3 -1346 15 -388 68 -671 345 -764 745 -5 19 -10 1303 -11
2853 -3 2685 -2 2817 14 2817 10 1 356 2 768 5 413 2 773 6 800 9 47 5 98 10
235 22 30 3 66 7 80 9 14 2 48 7 75 10 52 7 301 50 345 60 14 3 39 8 55 11 17
3 95 23 175 45 527 144 914 376 1137 679 89 122 181 336 197 460 3 25 9 59 12
75 4 17 6 194 6 395 -1 201 -1 745 -2 1209 l0 843 -41 -43 c-193 -205 -232
-241 -361 -325 -85 -55 -309 -169 -419 -212 -137 -55 -333 -116 -534 -167
-123 -32 -396 -80 -560 -100 -27 -3 -63 -8 -80 -10 -28 -3 -133 -13 -230 -20
-164 -13 -417 -18 -990 -19 -363 -1 -666 0 -672 2 -10 3 -13 418 -13 2028 l0
2024 -1262 0 c-1351 -1 -1335 0 -1488 -51 -347 -114 -625 -423 -695 -774 -18
-92 -21 -308 -20 -1700 0 -839 -2 -1525 -5 -1526 -3 0 -1013 -2 -2245 -4
-1232 -2 -2256 -5 -2275 -8 -19 -2 -71 -8 -115 -11 -88 -8 -84 -7 -239 -31
-126 -19 -120 -18 -211 -40 -38 -9 -77 -18 -85 -20 -71 -15 -244 -71 -360
-117 -77 -30 -321 -148 -330 -159 -3 -3 -21 -14 -40 -24 -33 -17 -152 -96
-230 -154 -126 -93 -350 -301 -474 -441 -27 -30 -119 -140 -204 -245 -86 -104
-189 -230 -230 -280 -93 -113 -83 -100 -427 -525 -159 -195 -336 -413 -394
-485 -58 -71 -191 -236 -295 -365 -105 -129 -193 -237 -196 -240 -3 -3 -52
-63 -110 -135 -57 -71 -109 -135 -115 -141 -5 -6 -54 -67 -108 -135 -53 -68
-147 -187 -208 -264 -62 -77 -139 -175 -173 -217 -33 -42 -64 -77 -67 -77 -4
-1 -7 1829 -7 4067 -1 2237 -1 4075 -1 4085 -1 16 -63 17 -1278 16 -1161 -2
-1285 -3 -1353 -19z"/>
</g>
</svg>
