<?xml version="1.0" standalone="no"?>
<!DOCTYPE svg PUBLIC "-//W3C//DTD SVG 20010904//EN"
 "http://www.w3.org/TR/2001/REC-SVG-20010904/DTD/svg10.dtd">
<svg version="1.0" xmlns="http://www.w3.org/2000/svg"
 width="512.000000pt" height="512.000000pt" viewBox="0 0 512.000000 512.000000"
 preserveAspectRatio="xMidYMid meet">
<metadata>
Created by potrace 1.11, written by Peter Selinger 2001-2013
</metadata>
<g transform="translate(0.000000,512.000000) scale(0.100000,-0.100000)"
fill="#000000" stroke="none">
<path d="M350 4141 l0 -561 -105 0 c-127 0 -164 -13 -199 -69 l-26 -41 0
-1499 c0 -1413 1 -1500 18 -1520 l17 -21 2083 2 2083 3 60 145 c33 80 66 161
73 180 7 19 68 170 136 335 124 304 185 452 356 875 113 278 203 497 215 525
51 119 51 145 5 191 -32 32 -38 34 -103 34 -37 0 -73 4 -79 8 -9 6 -135 229
-232 412 -19 36 -38 69 -43 74 -4 5 -75 -28 -161 -75 -84 -46 -168 -91 -186
-100 -18 -10 -38 -22 -45 -28 -7 -5 -25 -14 -40 -20 l-27 -11 0 49 c0 34 6 55
21 72 11 13 44 51 74 84 147 167 225 261 223 267 -3 6 -118 108 -342 302 -33
28 -87 76 -121 106 -34 30 -75 62 -91 70 -16 8 -92 49 -169 91 -436 237 -402
220 -414 205 -9 -10 -42 -2 -168 41 -87 30 -199 68 -249 85 l-92 31 -143 140
c-123 120 -151 143 -194 156 -43 13 -200 15 -1092 19 l-1043 3 0 -560z"/>
</g>
</svg>
